<?xml version="1.0" standalone="no"?>
<!DOCTYPE svg PUBLIC "-//W3C//DTD SVG 1.1//EN" "http://www.w3.org/Graphics/SVG/1.1/DTD/svg11.dtd" >
<svg xmlns="http://www.w3.org/2000/svg">
<metadata></metadata>
<defs>
<font id="lft_eticaextrabold_italic" horiz-adv-x="1579" >
<font-face units-per-em="2048" ascent="1495" descent="-553" />
<missing-glyph horiz-adv-x="358" />
<glyph unicode="&#xfb01;" horiz-adv-x="1288" d="M45 786l39 232l145 45l7 41q33 194 132 294.5t277 100.5q84 0 189 -20l-46 -273q-21 8 -53 8q-37 0 -55 -22t-25 -64l-6 -41h639l-182 -1087h-416l131 786h-223l-131 -786h-416l131 786h-137zM918 1329q0 104 63.5 160.5t173.5 56.5q88 0 134 -38t46 -111 q0 -105 -61.5 -160t-177.5 -55q-85 0 -131.5 37.5t-46.5 109.5z" />
<glyph unicode="&#xfb02;" horiz-adv-x="1288" d="M45 786l39 232l145 45l7 41q33 194 132 294.5t277 100.5q84 0 189 -20l-46 -273q-21 8 -53 8q-37 0 -55 -22t-25 -64l-6 -41h221l64 388h416l-246 -1475h-416l131 786h-221l-131 -786h-416l131 786h-137z" />
<glyph unicode="&#xfb03;" horiz-adv-x="1933" d="M45 786l39 232l145 45l4 20q31 192 132 291.5t280 100.5q103 0 205 -25l-66 -268q-21 8 -53 8q-64 0 -78 -76l-4 -27h223l2 17q33 194 132.5 294.5t277.5 100.5q84 0 189 -20l-46 -273q-21 8 -53 8q-37 0 -55 -22t-25 -64l-6 -41h639l-182 -1087h-416l131 786h-223 l-131 -786h-416l131 786h-223l-131 -786h-416l131 786h-137zM1556 1329q0 104 63.5 160.5t174.5 56.5q88 0 134 -38t46 -111q0 -105 -61.5 -160t-177.5 -55q-85 0 -132 37.5t-47 109.5z" />
<glyph unicode="&#xfb04;" horiz-adv-x="1925" d="M45 786l39 232l145 45l4 20q31 192 132 291.5t280 100.5q103 0 205 -25l-66 -268q-21 8 -53 8q-64 0 -78 -76l-4 -27h221l2 17q33 194 132.5 294.5t277.5 100.5q83 0 188 -20l-45 -273q-21 8 -53 8q-37 0 -55 -22t-25 -64l-6 -41h221l64 388h416l-246 -1475h-416l131 786 h-221l-131 -786h-416l131 786h-221l-131 -786h-416l131 786h-137z" />
<glyph horiz-adv-x="0" />
<glyph unicode="&#xd;" horiz-adv-x="2048" />
<glyph unicode=" "  horiz-adv-x="358" />
<glyph unicode="&#x09;" horiz-adv-x="358" />
<glyph unicode="&#xa0;" horiz-adv-x="358" />
<glyph unicode="!" horiz-adv-x="651" d="M35 150q0 108 72.5 175.5t183.5 67.5q86 0 134 -47t48 -127q0 -105 -70 -174.5t-182 -69.5q-88 0 -137 48.5t-49 126.5zM129 477l53 522l78 476h420l-78 -476l-125 -522h-348z" />
<glyph unicode="&#x22;" horiz-adv-x="825" d="M152 864v611h256v-611h-256zM514 864v611h258v-611h-258z" />
<glyph unicode="#" horiz-adv-x="1441" d="M59 311v254h254l66 189h-189v256h273l121 327l245 -49l-98 -278h201l123 327l245 -49l-100 -278h186v-256h-276l-66 -189h211v-254h-292l-115 -309l-244 59l92 250h-200l-119 -309l-244 59l92 250h-166zM578 565h204l64 189h-207z" />
<glyph unicode="$" horiz-adv-x="1116" d="M-55 227l227 244q83 -70 174 -115t164 -45q121 0 121 74q0 39 -46 66.5t-184 72.5q-152 50 -225.5 141.5t-73.5 237.5q0 98 36 180t98.5 139t143.5 94t175 50l27 168h307l-29 -172q86 -20 163 -62.5t134 -99.5l-209 -244q-167 117 -289 117q-139 0 -139 -80q0 -43 43 -68 t191 -79q155 -57 228 -141.5t73 -231.5q0 -175 -115.5 -299.5t-304.5 -161.5l-33 -192h-309l33 186q-112 17 -215 78.5t-166 142.5z" />
<glyph unicode="%" horiz-adv-x="2121" d="M127 989q0 111 42 204t112.5 154t161.5 94.5t190 33.5q161 0 263.5 -91t102.5 -251q0 -143 -71.5 -255t-185.5 -169.5t-246 -57.5q-164 0 -266.5 87.5t-102.5 250.5zM375 0l1122 1475h311l-1128 -1475h-305zM428 1028q0 -51 29 -82t84 -31q70 0 114.5 49t44.5 119 q0 52 -28.5 85.5t-83.5 33.5q-74 0 -117 -51t-43 -123zM1165 313q0 111 41.5 204t111.5 154t161 94.5t190 33.5q162 0 263.5 -90.5t101.5 -251.5q0 -143 -71 -254.5t-184.5 -169.5t-246.5 -58q-163 0 -265 87.5t-102 250.5zM1464 352q0 -51 29 -81.5t84 -30.5 q69 0 115.5 49.5t46.5 118.5q0 52 -30 85t-85 33q-71 0 -115.5 -51t-44.5 -123z" />
<glyph unicode="&#x26;" horiz-adv-x="1507" d="M47 360q0 78 20 145t51 116.5t82 96t99.5 79t116.5 69.5q-74 96 -74 215q0 85 33 160t95.5 133.5t161 92.5t220.5 34q168 0 269.5 -70.5t101.5 -209.5q0 -59 -17 -111t-40.5 -87.5t-64.5 -71.5t-71 -56t-78 -49l64 -84l221 170l199 -256l-230 -176l205 -279l-338 -246 l-121 160q-120 -89 -229.5 -124.5t-247.5 -35.5q-197 0 -312.5 107t-115.5 278zM436 428q0 -51 32.5 -90t100.5 -39q112 0 189 74l-183 262q-139 -87 -139 -207zM721 1143q0 -47 53 -113q51 35 79 68t28 73q0 29 -16.5 46.5t-49.5 17.5q-47 0 -70.5 -27t-23.5 -65z" />
<glyph unicode="'" horiz-adv-x="460" d="M152 864v611h256v-611h-256z" />
<glyph unicode="(" horiz-adv-x="780" d="M66 461q0 560 512 1057l266 -146q-221 -279 -300 -465.5t-79 -417.5q0 -262 162 -593l-295 -181q-122 136 -194 335.5t-72 410.5z" />
<glyph unicode=")" horiz-adv-x="778" d="M-57 -139q221 279 300 465t79 417q0 263 -162 594l295 181q122 -136 194 -335.5t72 -410.5q0 -560 -512 -1057z" />
<glyph unicode="*" horiz-adv-x="974" d="M145 1124l60 168l227 -45l45 230h176l43 -230l244 43l61 -164l-202 -102l125 -197l-148 -118l-201 186l-194 -186l-150 118l129 191z" />
<glyph unicode="+" horiz-adv-x="1228" d="M78 492v251h405v410h265v-410h401v-251h-401v-410h-265v410h-405z" />
<glyph unicode="," horiz-adv-x="538" d="M-82 -190q193 74 225 200q-70 -7 -118 40t-48 118q0 97 69.5 160t176.5 63q100 0 149.5 -61.5t49.5 -153.5q0 -171 -112 -312.5t-339 -221.5z" />
<glyph unicode="-" horiz-adv-x="638" d="M16 414l54 315h540l-53 -315h-541z" />
<glyph unicode="." horiz-adv-x="532" d="M-23 184q0 95 61.5 152t162.5 57q100 0 159.5 -57t59.5 -152q0 -93 -59 -151t-160 -58q-104 0 -164 58t-60 151z" />
<glyph unicode="/" horiz-adv-x="880" d="M-111 -188l754 1701h330l-756 -1701h-328z" />
<glyph unicode="0" horiz-adv-x="1218" d="M43 492q0 102 14 206q49 360 229.5 549t458.5 189q225 0 341 -132t116 -382q0 -84 -16 -199q-57 -387 -228 -567.5t-454 -180.5q-461 0 -461 517zM444 508q0 -89 26.5 -132.5t86.5 -43.5q162 0 223 375q19 114 19 186q0 176 -115 176q-87 0 -139.5 -94t-81.5 -277 q-19 -117 -19 -190z" />
<glyph unicode="1" horiz-adv-x="1040" d="M47 0l53 317h250l101 601q-128 -51 -289 -48l-4 277q119 33 243.5 105t212.5 161h320l-182 -1096h229l-53 -317h-881z" />
<glyph unicode="2" horiz-adv-x="1122" d="M-43 0l41 248l473 475q113 115 138 147q48 61 48 123q0 82 -94 82q-121 0 -350 -147l-107 270q310 238 601 238q183 0 292 -87.5t109 -254.5q0 -67 -13.5 -124.5t-34.5 -102t-59.5 -92.5t-76.5 -87.5t-96 -96.5q-14 -13 -21 -20l-238 -233h430l-57 -338h-985z" />
<glyph unicode="3" horiz-adv-x="1110" d="M-63 170l182 266q188 -117 311 -117q88 0 144.5 38.5t56.5 111.5q0 53 -41 72.5t-125 19.5q-73 0 -139 -12l41 311q303 16 303 160q0 42 -26.5 60t-80.5 18q-120 0 -289 -88l-98 258q133 80 259 124t270 44q179 0 278.5 -79t99.5 -218q0 -145 -89 -244.5t-244 -151.5 q126 -15 198 -88t72 -190q0 -119 -48.5 -214t-133 -154.5t-194.5 -90.5t-236 -31q-136 0 -259 48.5t-212 146.5z" />
<glyph unicode="4" horiz-adv-x="1263" d="M2 272l53 316l662 825h510l-135 -817h127l-56 -324h-127l-45 -272h-405l45 272h-629zM406 596h280l74 448z" />
<glyph unicode="5" horiz-adv-x="1112" d="M-57 145l163 277q168 -96 334 -96q87 0 146 50.5t59 153.5q0 115 -108 115q-72 0 -160 -53l-21 -82h-309l219 903h834l-82 -362h-516l-51 -189q110 66 247 66q167 0 255.5 -91.5t88.5 -254.5q0 -145 -52.5 -263t-141 -191.5t-200.5 -113t-236 -39.5q-130 0 -261 47.5 t-208 122.5z" />
<glyph unicode="6" horiz-adv-x="1179" d="M49 483q0 77 14 199q49 377 232 565.5t475 188.5q236 0 406 -123l-154 -271q-107 58 -248 58q-129 0 -203 -69t-110 -234q62 53 147 84.5t176 31.5q330 0 330 -340q0 -172 -73 -307t-213 -213t-326 -78q-453 0 -453 508zM432 467q0 -156 123 -156q78 0 123 56.5t45 132.5 q0 63 -29.5 88.5t-87.5 25.5q-81 0 -166 -53q-8 -66 -8 -94z" />
<glyph unicode="7" horiz-adv-x="1026" d="M-18 0l6 37l608 1014h-496l60 362h973l-43 -266l-652 -1147h-456z" />
<glyph unicode="8" horiz-adv-x="1173" d="M10 303q0 272 285 416q-133 100 -133 260q0 202 159.5 329.5t413.5 127.5q202 0 312 -83t110 -225q0 -226 -227 -364q81 -57 124.5 -124t43.5 -167q0 -159 -83.5 -273t-224 -169.5t-323.5 -55.5q-220 0 -338.5 83.5t-118.5 244.5zM375 389q0 -48 34 -76t99 -28 q72 0 113 36t41 89q0 27 -12.5 49.5t-42 43t-51 32.5t-64.5 32q-58 -40 -87.5 -81.5t-29.5 -96.5zM582 1049q0 -38 30.5 -68t94.5 -63q46 49 65 83.5t19 71.5q0 35 -24 57.5t-69 22.5q-52 0 -84 -27t-32 -77z" />
<glyph unicode="9" horiz-adv-x="1175" d="M8 96l148 262q47 -24 126 -44.5t152 -20.5q115 0 178.5 69.5t106.5 223.5q-140 -103 -297 -103q-163 0 -254.5 91.5t-91.5 271.5q0 273 165 431.5t443 158.5q123 0 213 -40t143 -113.5t78 -169.5t25 -216q0 -74 -10 -162q-39 -358 -220.5 -559t-451.5 -201 q-273 0 -453 121zM467 899q0 -117 115 -117q41 0 91.5 19.5t74.5 40.5q8 70 8 98q0 160 -121 160q-79 0 -123.5 -54t-44.5 -147z" />
<glyph unicode=":" horiz-adv-x="542" d="M-20 184q0 95 61 152t162 57q100 0 159.5 -57t59.5 -152q0 -93 -59 -151t-160 -58q-104 0 -163.5 58t-59.5 151zM100 868q0 95 61.5 152t162.5 57q100 0 159.5 -57t59.5 -152q0 -93 -59 -151t-160 -58q-104 0 -164 58t-60 151z" />
<glyph unicode=";" horiz-adv-x="550" d="M-82 -190q193 74 225 200q-70 -7 -118 40t-48 118q0 97 69.5 160t176.5 63q100 0 149.5 -61.5t49.5 -153.5q0 -171 -112 -312.5t-339 -221.5zM106 868q0 95 61.5 152t162.5 57q100 0 159.5 -57t59.5 -152q0 -93 -59 -151t-160 -58q-104 0 -164 58t-60 151z" />
<glyph unicode="&#x3c;" horiz-adv-x="1228" d="M55 514v197l1024 442l111 -266l-643 -275l606 -254l-111 -268z" />
<glyph unicode="=" horiz-adv-x="1228" d="M80 242v256h1067v-256h-1067zM80 643v256h1067v-256h-1067z" />
<glyph unicode="&#x3e;" horiz-adv-x="1228" d="M59 348l629 264l-598 256l111 267l979 -424v-197l-1010 -434z" />
<glyph unicode="?" horiz-adv-x="1157" d="M115 999q18 110 62 196t104.5 142.5t140.5 93.5t165.5 52.5t182.5 15.5q88 0 163 -20t133.5 -59.5t92 -105t33.5 -151.5q0 -82 -20.5 -150.5t-53.5 -116t-74 -88t-83 -74.5t-78 -66t-63 -72t-34 -84l-6 -35h-407l10 66q12 69 44.5 131t72.5 104t84.5 82.5t80.5 70.5 t59.5 64.5t23.5 67.5q0 37 -25 58.5t-68 21.5q-131 0 -155 -144h-385zM307 150q0 108 72.5 175.5t183.5 67.5q87 0 136 -47t49 -127q0 -105 -70 -174.5t-184 -69.5q-88 0 -137.5 49t-49.5 126z" />
<glyph unicode="@" horiz-adv-x="1990" d="M127 401q0 204 73.5 378t201 292.5t300.5 185t369 66.5q227 0 404.5 -84t277.5 -239t100 -355q0 -151 -52 -277.5t-135 -205.5t-183 -122.5t-201 -43.5q-76 0 -131.5 38.5t-75.5 104.5q-106 -139 -268 -139q-127 0 -198.5 86t-71.5 244q0 162 69.5 291t191 200.5 t271.5 71.5q102 0 179 -23t161 -69l-111 -447q-20 -85 -20 -96q0 -26 18.5 -39.5t46.5 -13.5q65 0 121.5 43.5t92 109t55.5 137t20 132.5q0 120 -44.5 216t-122.5 157t-180 93.5t-220 32.5q-208 0 -371 -90t-255.5 -256t-92.5 -381q0 -289 169.5 -459.5t477.5 -170.5 q160 0 315 45.5t279 140.5l105 -160q-284 -223 -688 -223q-409 0 -643 221t-234 608zM760 344q0 -72 31 -115t90 -43q65 0 116.5 54t73.5 139l80 311q-40 19 -98 19q-88 0 -156.5 -56t-102.5 -138.5t-34 -170.5z" />
<glyph unicode="A" horiz-adv-x="1464" d="M-111 0l744 1475h493l244 -1475h-475l-33 231h-409l-113 -231h-451zM580 545h262l-41 497z" />
<glyph unicode="B" horiz-adv-x="1349" d="M-12 0l245 1475h633q137 0 239.5 -33.5t165 -109t62.5 -187.5q0 -136 -79 -240.5t-216 -132.5v-4q119 -22 177.5 -103t58.5 -188q0 -108 -32 -190.5t-89 -136.5t-143.5 -88t-187 -48t-226.5 -14h-608zM477 338h191q77 0 123.5 46.5t46.5 113.5q0 51 -35.5 79.5 t-97.5 28.5h-185zM571 909h158q76 0 125 33t49 105q0 92 -129 92h-164z" />
<glyph unicode="C" horiz-adv-x="1386" d="M59 590q0 190 54 354.5t155.5 289t259.5 196t353 71.5q97 0 182 -22t154.5 -69t115.5 -116q47 -69 65 -169q10 -52 10 -110q0 -53 -9 -112h-422q3 25 3 46q0 69 -28 109q-36 52 -125 52q-147 0 -227 -120.5t-80 -352.5q0 -260 219 -260q182 0 406 143l127 -301 q-313 -244 -654 -244q-183 0 -310.5 78t-188 214.5t-60.5 322.5z" />
<glyph unicode="D" horiz-adv-x="1437" d="M-12 0l245 1475h578q153 0 270 -44.5t189.5 -125t109.5 -189.5t37 -242q0 -211 -53 -370.5t-163 -273.5t-287 -172t-418 -58h-508zM483 375h133q174 0 258 119.5t84 336.5q0 269 -221 269h-133z" />
<glyph unicode="E" horiz-adv-x="1187" d="M-12 0l245 1475h1031l-64 -383h-598l-31 -193h545l-57 -336h-545l-31 -188h604l-63 -375h-1036z" />
<glyph unicode="F" horiz-adv-x="1148" d="M-12 0l245 1475h1022l-63 -383h-590l-39 -236h516l-59 -356h-516l-84 -500h-432z" />
<glyph unicode="G" horiz-adv-x="1419" d="M59 575q0 149 29.5 283.5t94.5 253t160 204t235 135.5t311 50q273 0 405 -150q114 -129 114 -329q0 -33 -3 -68h-428q1 10 1 19q0 63 -31 97q-35 40 -116 40q-143 0 -228 -128t-85 -359q0 -127 47.5 -202t145.5 -75q136 0 223 70l16 92h-202l49 297h583l-100 -602 q-263 -228 -647 -228q-123 0 -221.5 32t-163.5 87t-108 132t-62 163.5t-19 185.5z" />
<glyph unicode="H" horiz-adv-x="1437" d="M-12 0l245 1475h433l-93 -557h394l92 557h432l-246 -1475h-432l88 522h-393l-88 -522h-432z" />
<glyph unicode="I" horiz-adv-x="612" d="M-12 0l245 1475h433l-246 -1475h-432z" />
<glyph unicode="J" horiz-adv-x="858" d="M-70 16l78 351q68 -19 156 -19q81 0 115 33.5t49 124.5l161 969h433l-172 -1029q-77 -471 -492 -471q-184 0 -328 41z" />
<glyph unicode="K" horiz-adv-x="1404" d="M-12 0l245 1475h433l-93 -560h101l373 560h481l-512 -736l293 -739h-492l-203 555h-102l-92 -555h-432z" />
<glyph unicode="L" horiz-adv-x="1132" d="M-12 0l245 1475h433l-183 -1100h570l-64 -375h-1001z" />
<glyph unicode="M" horiz-adv-x="1771" d="M-61 0l383 1475h458l101 -936h10l409 936h451l-123 -1475h-399l63 752l-346 -752h-307l-107 750l-186 -750h-407z" />
<glyph unicode="N" horiz-adv-x="1452" d="M-12 0l245 1475h371l350 -758l125 758h426l-245 -1475h-371l-354 717l-121 -717h-426z" />
<glyph unicode="O" d="M61 590q0 192 56.5 357.5t161.5 288.5t266 193t360 70q159 0 285 -46t207 -129.5t123.5 -196.5t42.5 -250q0 -153 -36.5 -289.5t-108.5 -248.5t-173.5 -193.5t-238 -126t-295.5 -44.5q-321 0 -485.5 163t-164.5 452zM528 653q0 -276 230 -276q86 0 152 36t106 99t60 142 t20 171q0 125 -55 200t-173 75q-83 0 -148.5 -35.5t-107 -97t-63 -141.5t-21.5 -173z" />
<glyph unicode="P" horiz-adv-x="1300" d="M-12 0l245 1475h609q222 0 345.5 -112.5t123.5 -313.5q0 -285 -171 -457t-489 -172h-162l-69 -420h-432zM549 766h137q86 0 136 52.5t50 135.5q0 60 -33 99t-96 39h-141z" />
<glyph unicode="Q" d="M59 610q0 184 56.5 345t162 282.5t267.5 191.5t360 70q160 0 286 -46t207.5 -129.5t124 -196.5t42.5 -250q0 -458 -328 -662l-2 -10l225 -70l-182 -344l-518 189q-19 -1 -37 -1q-130 0 -239 31q-126 35 -222 110t-149.5 200t-53.5 290zM528 653q0 -276 230 -276 q86 0 152.5 36t106.5 99t60.5 142t20.5 171q0 124 -56 199.5t-174 75.5q-83 0 -148.5 -35.5t-107 -97t-63 -141.5t-21.5 -173z" />
<glyph unicode="R" horiz-adv-x="1366" d="M-12 0l245 1475h605q242 0 366.5 -110.5t124.5 -303.5q0 -336 -278 -494l190 -567h-479l-127 457h-139l-76 -457h-432zM549 776h143q90 0 141.5 50.5t51.5 136.5q0 60 -34 94.5t-99 34.5h-150z" />
<glyph unicode="S" horiz-adv-x="1249" d="M-55 213l252 295q84 -65 196.5 -114.5t194.5 -49.5q121 0 121 82q-1 20 -13.5 35t-36.5 27t-60 24t-83 26q-10 3 -15.5 4.5t-14 4t-15.5 4.5q-156 46 -251 150t-95 264q0 171 86 294.5t228 183.5t323 60q168 0 309.5 -63t226.5 -166l-239 -262q-156 131 -314 131 q-120 0 -120 -72q0 -35 39.5 -60.5t136.5 -56.5q57 -19 100.5 -37t89.5 -44t78.5 -57.5t59 -71.5t40 -92.5t13.5 -114.5q0 -174 -80.5 -303t-219 -195t-315.5 -66q-185 0 -348.5 66.5t-273.5 173.5z" />
<glyph unicode="T" horiz-adv-x="1277" d="M104 1090l64 385h1229l-64 -385h-399l-182 -1090h-430l182 1090h-400z" />
<glyph unicode="U" horiz-adv-x="1398" d="M78 604l145 871h434l-149 -900q-6 -33 -6 -60q0 -62 28 -97q40 -51 127 -51q93 0 150 48t76 160l149 900h430l-149 -902q-27 -165 -85 -280.5t-148 -185t-203.5 -101t-262.5 -31.5q-309 -1 -448 163q-102 120 -102 314q0 71 14 152z" />
<glyph unicode="V" horiz-adv-x="1392" d="M133 1475h463l86 -967l410 967h452l-692 -1475h-518z" />
<glyph unicode="W" horiz-adv-x="1859" d="M135 1475h424l4 -887l322 887h383l18 -891l299 891h426l-549 -1475h-456l-41 811h-13l-307 -811h-455z" />
<glyph unicode="X" horiz-adv-x="1409" d="M-123 0l582 739l-301 736h469l149 -418l287 418h496l-586 -758l321 -717h-501l-152 379l-279 -379h-485z" />
<glyph unicode="Y" horiz-adv-x="1419" d="M135 1475h471l148 -564l333 564h484l-672 -957l-86 -518h-432l86 514z" />
<glyph unicode="Z" horiz-adv-x="1300" d="M-55 0l47 276l694 814h-541l64 385h1194l-29 -175l-778 -925h623l-64 -375h-1210z" />
<glyph unicode="[" horiz-adv-x="782" d="M-37 -256l289 1731h571l-51 -308h-186l-187 -1120h187l-51 -303h-572z" />
<glyph unicode="\" horiz-adv-x="980" d="M139 1513h330l469 -1701h-328z" />
<glyph unicode="]" horiz-adv-x="782" d="M-43 -256l51 303h185l186 1120h-184l51 308h571l-289 -1731h-571z" />
<glyph unicode="^" horiz-adv-x="1454" d="M215 934l535 485h229l362 -491l-229 -166l-297 368l-434 -368z" />
<glyph unicode="_" horiz-adv-x="948" d="M-184 -494l47 283h999l-47 -283h-999z" />
<glyph unicode="`" horiz-adv-x="997" d="M227 1442l226 229l303 -323l-189 -191z" />
<glyph unicode="a" horiz-adv-x="1265" d="M31 397q0 144 33.5 264.5t90 202.5t131.5 139t156.5 83t167.5 26q75 0 150 -31t127 -96l47 102h338l-182 -1087h-361l-8 125q-54 -63 -141.5 -106.5t-196.5 -43.5q-172 0 -262 109t-90 313zM479 463q0 -162 111 -162q87 0 143 53l62 369q-40 57 -125 57q-95 0 -143 -86.5 t-48 -230.5z" />
<glyph unicode="b" horiz-adv-x="1267" d="M-10 0l246 1475h415l-78 -467q126 104 297 104q75 0 138 -24.5t113.5 -74.5t79 -135t28.5 -196q0 -153 -31.5 -278.5t-96 -223t-172.5 -151.5t-251 -54q-107 0 -190 42t-121 98l-58 -115h-319zM465 352q16 -23 50 -39t75 -16q93 0 143.5 86t50.5 246q0 155 -102 155 q-40 0 -84 -17.5t-72 -43.5z" />
<glyph unicode="c" horiz-adv-x="1126" d="M25 453q0 299 175.5 479t483.5 180q236 0 344 -119q83 -91 83 -248q0 -48 -7 -102h-346q2 21 2 39q0 113 -96 113q-88 0 -140.5 -83t-52.5 -229q0 -89 39 -136.5t111 -47.5q120 0 317 90l59 -260q-249 -154 -501 -154q-136 0 -240.5 52t-167.5 161.5t-63 264.5z" />
<glyph unicode="d" horiz-adv-x="1259" d="M25 397q0 144 33.5 264.5t90 202.5t131.5 139t156.5 83t167.5 26q67 0 129 -25t105 -69l75 457h416l-246 -1475h-360l-8 125q-54 -63 -141.5 -106.5t-196.5 -43.5q-172 0 -262 109t-90 313zM473 463q0 -162 111 -162q87 0 143 53l61 369q-40 57 -124 57q-95 0 -143 -86.5 t-48 -230.5z" />
<glyph unicode="e" horiz-adv-x="1132" d="M27 428q0 304 181 494t474 190q207 0 324.5 -93t117.5 -249q0 -87 -33 -151t-108.5 -112.5t-203.5 -77.5t-314 -40q3 -41 46 -74.5t112 -33.5q107 0 321 65l35 -254q-236 -117 -481 -117q-227 0 -349 121t-122 332zM465 612q105 9 167 28.5t83.5 44t21.5 58.5 q0 39 -23.5 61.5t-68.5 22.5q-67 0 -119.5 -63.5t-60.5 -151.5z" />
<glyph unicode="f" horiz-adv-x="724" d="M41 0l131 786h-117l41 246l125 45l8 45q62 377 435 377q124 0 225 -29l-66 -272q-46 16 -90 16q-73 0 -86 -75l-8 -52h158l-52 -301h-157l-131 -786h-416z" />
<glyph unicode="g" horiz-adv-x="1267" d="M31 408q0 208 69 367.5t199.5 248t304.5 88.5q93 0 164.5 -35t116.5 -92l49 102h336l-164 -983q-26 -151 -75.5 -254.5t-126.5 -164t-174 -87t-228 -26.5q-134 0 -252 22.5t-191 53.5l105 284q195 -53 313 -53q107 0 155.5 41t67.5 148l11 71q-62 -68 -145 -101.5 t-171 -33.5q-169 0 -266.5 100t-97.5 304zM479 477q0 -75 28.5 -111t88.5 -36q79 0 139 53l58 338q-43 65 -123 65q-52 0 -90.5 -27.5t-59.5 -73.5t-31 -98t-10 -110z" />
<glyph unicode="h" horiz-adv-x="1191" d="M-20 0l245 1475h416l-78 -467q65 48 135.5 76t165.5 28q168 0 238 -92q50 -66 49 -175q0 -45 -8 -97l-125 -748h-416l107 641q6 37 6 63q1 30 -7 44q-14 28 -63 28q-34 0 -70 -18t-59 -41l-121 -717h-415z" />
<glyph unicode="i" horiz-adv-x="595" d="M-2 0l182 1087h416l-182 -1087h-416zM205 1331q0 106 74.5 165.5t185.5 59.5q92 0 145.5 -41.5t53.5 -121.5q0 -106 -73 -164t-190 -58q-89 0 -142.5 40.5t-53.5 119.5z" />
<glyph unicode="j" horiz-adv-x="591" d="M-252 -399l68 270q39 -8 78 -8q41 0 61 18t29 68l190 1138h416l-191 -1140q-33 -188 -138.5 -281.5t-295.5 -93.5q-122 0 -217 29zM203 1331q0 106 74.5 165.5t185.5 59.5q92 0 145.5 -41.5t53.5 -121.5q0 -106 -73 -164t-190 -58q-89 0 -142.5 40.5t-53.5 119.5z" />
<glyph unicode="k" horiz-adv-x="1210" d="M-10 0l246 1475h415l-119 -721h52l231 333h445l-359 -493l223 -594h-471l-137 424h-39l-71 -424h-416z" />
<glyph unicode="l" horiz-adv-x="600" d="M0 0l246 1475h416l-246 -1475h-416z" />
<glyph unicode="m" horiz-adv-x="1740" d="M-20 0l182 1087h340l18 -112q145 137 324 137q185 0 243 -141q170 141 353 141q142 0 210 -93q49 -67 50 -172q0 -42 -8 -89l-127 -758h-416l111 659q6 32 6 55q0 21 -6 33q-10 25 -52 25q-38 0 -108 -45l-121 -727h-414l111 659q6 34 6 57q0 20 -4 32q-10 26 -53 26 q-48 0 -109 -49l-121 -725h-415z" />
<glyph unicode="n" horiz-adv-x="1191" d="M-20 0l182 1087h340l18 -112q62 57 154 97t190 40q168 0 238 -92q50 -66 49 -175q0 -45 -8 -97l-125 -748h-416l107 641q6 36 6 61q0 29 -8 45q-15 29 -64 29q-34 0 -69 -18t-58 -41l-121 -717h-415z" />
<glyph unicode="o" horiz-adv-x="1257" d="M20 440q0 54 9 113q17 120 63 216.5t110.5 159.5t148 105t171 60t183.5 18q242 0 378 -119.5t136 -347.5q0 -39 -7 -100q-15 -123 -60 -221t-109.5 -162.5t-149 -107t-175.5 -61t-192 -18.5q-233 0 -369.5 118t-136.5 347zM467 455q0 -154 115 -154q68 0 116.5 59.5 t67.5 184.5q8 47 8 92q0 154 -112 154q-72 0 -121.5 -60.5t-67.5 -185.5q-6 -53 -6 -90z" />
<glyph unicode="p" horiz-adv-x="1267" d="M-80 -410l250 1497h338l27 -108q82 71 161.5 102t171.5 31q74 0 136.5 -24.5t113 -74.5t79 -135t28.5 -196q0 -210 -62.5 -368t-189 -248.5t-303.5 -90.5q-149 0 -254 95l-80 -480h-416zM461 348q42 -49 119 -49q97 0 147.5 85.5t50.5 246.5q0 79 -24 117t-76 38 q-37 0 -79.5 -18t-74.5 -45z" />
<glyph unicode="q" horiz-adv-x="1265" d="M25 393q0 145 33.5 265.5t90 203t132 140t159 84t172.5 26.5q173 0 271 -117l75 92h308l-250 -1497h-416l80 488q-121 -103 -277 -103q-189 0 -283.5 108t-94.5 310zM473 465q0 -166 111 -166q81 0 143 55l61 369q-15 27 -48.5 43t-75.5 16q-95 0 -143 -87t-48 -230z" />
<glyph unicode="r" horiz-adv-x="800" d="M-10 0l182 1087h320l26 -135q115 160 238 160q62 0 114 -27l-86 -368q-66 14 -112 14q-38 0 -83.5 -24t-74.5 -60l-108 -647h-416z" />
<glyph unicode="s" horiz-adv-x="1038" d="M-61 154l192 241q66 -44 155.5 -81.5t151.5 -37.5q74 0 74 56q-1 28 -23.5 40.5t-90.5 32.5q-20 6 -31 9q-42 12 -75.5 25.5t-74.5 38.5t-68.5 55t-46 76.5t-18.5 103.5q0 78 29 144.5t78.5 113t115 79.5t137.5 48.5t146 15.5q134 0 263.5 -42t193.5 -103l-179 -228 q-50 35 -126 60.5t-124 25.5q-79 0 -79 -51q0 -28 28 -44t105 -40q55 -16 90 -29t77.5 -37t67 -52.5t41.5 -73t17 -101.5q0 -103 -40.5 -184.5t-112 -133.5t-165 -79t-203.5 -27q-155 0 -291 51t-214 128z" />
<glyph unicode="t" horiz-adv-x="761" d="M29 786l39 230l165 69l86 332h375l-55 -330h166l-51 -301h-166l-72 -426q-5 -36 6.5 -51.5t46.5 -15.5q28 0 86 12l-10 -282q-151 -48 -297 -48q-160 0 -222 81q-45 59 -45 149q0 35 7 74l84 507h-143z" />
<glyph unicode="u" horiz-adv-x="1202" d="M37 336l127 751h418l-113 -667q-3 -21 -4 -38q-1 -32 11 -50q16 -28 63 -29q35 0 72 16.5t57 38.5l123 729h413l-182 -1087h-330l-30 123q-132 -148 -334 -148q-170 0 -244 95q-54 69 -55 178q0 41 8 88z" />
<glyph unicode="v" horiz-adv-x="1120" d="M61 1087h408l55 -700l271 700h413l-503 -1087h-492z" />
<glyph unicode="w" horiz-adv-x="1634" d="M74 1087h411l13 -624l207 624h391v-624l219 624h411l-487 -1087h-426v563h-10l-197 -563h-432z" />
<glyph unicode="x" horiz-adv-x="1175" d="M-125 0l451 545l-224 542h433l96 -280l213 280h424l-432 -548l256 -539h-453l-113 268l-209 -268h-442z" />
<glyph unicode="y" horiz-adv-x="1112" d="M-123 -401l90 303q91 -11 144 -11q95 0 137 93l12 26l-184 1077h422l30 -671h9l251 671h420l-544 -1083q-82 -162 -157 -253t-171 -135t-230 -44q-114 0 -229 27z" />
<glyph unicode="z" horiz-adv-x="972" d="M-51 0l43 254l446 524h-350l51 309h889l-29 -163l-512 -617h406l-51 -307h-893z" />
<glyph unicode="{" horiz-adv-x="878" d="M41 446l47 281h88q75 0 103 40t49 167l26 149q36 221 151.5 306.5t364.5 85.5h93l-48 -287h-61q-72 0 -96.5 -42.5t-50.5 -195.5q-21 -130 -43 -194q-19 -61 -62.5 -100.5t-112.5 -65.5q139 -41 119 -184q-4 -28 -15 -118.5t-18 -133.5q-11 -65 16.5 -94t100.5 -29h31 l-49 -287h-92q-90 0 -152.5 6t-112.5 22.5t-78.5 43t-44 69.5t-15 100t13.5 136l34 207q10 68 -8.5 93t-73.5 25h-104z" />
<glyph unicode="|" horiz-adv-x="1024" d="M332 -410v1885h360v-1885h-360z" />
<glyph unicode="}" horiz-adv-x="886" d="M-68 -256l50 287h30q34 0 56.5 3.5t41 16.5t29.5 28t21.5 49t17.5 68t17 95q9 52 15.5 83.5t17.5 65.5t24.5 54.5t34 40.5t48 32.5t64.5 22.5q-59 26 -88 65t-28 101v-1v-1v-2v-1v-2v-2v-1v-2v-2v-2v-1v-2v-2v-1v-1v-2v-1v-1v-2v-1v-1v-1v-1v-1v-1v-1v-1v-1v-1v-1v-1v-1 v-1v-1v-1v-1v-1v-1v-1v1v1v1v1v1v1v1v1v1v1v1v1v1v1v1v1v1v1v1v1v1v1v1v1v1v1v1v1v1v1v1v1v1v1v1v1v1v1v1v1v1v1v1v1v1v1v1v1v1v1v1v1v1v1v1v1v1v1v1v1v1v1v1v1v1v1v1v1v1v1v1v1v1v1v1v1v1v9q0 47 4.5 114.5t7 110.5t0 85.5t-17.5 63.5t-44 21h-59l47 287h92 q250 0 337.5 -85.5t51.5 -306.5l-26 -149q-22 -124 -7.5 -165.5t89.5 -41.5h88l-47 -281h-105q-55 0 -82 -25.5t-37 -92.5l-34 -207q-13 -79 -32 -136t-49 -100t-67.5 -69.5t-93 -43t-120 -22.5t-154.5 -6h-93z" />
<glyph unicode="~" horiz-adv-x="1601" d="M164 664q212 133 414 133q85 0 245 -51.5t246 -51.5q47 0 103 16t96 33.5t114 53.5l58 -226q-207 -135 -414 -135q-19 0 -38 1.5t-40.5 5t-35 6t-39.5 9.5t-34.5 9.5t-38.5 11t-36 10.5l-25 7q-6 2 -27.5 8.5t-28.5 8.5t-25 7t-26.5 7t-24 5.5t-25.5 5t-22.5 2.5t-24.5 1 q-125 0 -312 -105z" />
<glyph unicode="&#xa1;" horiz-adv-x="651" d="M-45 -387l78 475l125 522h348l-53 -522l-78 -475h-420zM162 868q0 105 70 174.5t182 69.5q88 0 137 -48.5t49 -125.5q0 -108 -72.5 -176t-183.5 -68q-86 0 -134 47t-48 127z" />
<glyph unicode="&#xa2;" horiz-adv-x="1144" d="M66 606q0 252 144.5 436.5t371.5 221.5l34 209h308l-35 -207q317 -66 252 -459h-348q21 151 -91 151q-84 0 -137 -79.5t-53 -214.5q0 -181 147 -181q123 0 320 90l57 -260q-56 -34 -96.5 -56t-104 -46t-128.5 -37l-35 -211h-310l35 205q-151 24 -241 137t-90 301z" />
<glyph unicode="&#xa3;" horiz-adv-x="1107" d="M-35 0l49 291l146 26q47 36 75.5 92t28.5 115q0 50 -10 80h-197l45 260h117q-31 72 -31 137q0 201 149.5 318t383.5 117q142 0 260 -52t195 -143l-193 -240q-69 54 -121.5 78.5t-124.5 24.5q-73 0 -109 -37.5t-36 -99.5q0 -31 22 -103h291l-45 -260h-219q8 -31 8 -82 q0 -53 -27 -104.5t-67 -89.5h453l-56 -328h-987z" />
<glyph unicode="&#xa4;" horiz-adv-x="1148" d="M20 344l187 164q-21 61 -21 131q0 105 80 229l-131 166l193 183l131 -173q97 46 194 46t174 -41l185 163l141 -180l-188 -164q24 -67 24 -133q0 -117 -86 -231l135 -158l-200 -180l-133 168q-93 -45 -185 -45q-95 0 -174 45q-53 -46 -188 -168zM434 664q0 -62 34.5 -95.5 t94.5 -33.5q73 0 125.5 55t52.5 129q0 60 -34 93.5t-93 33.5q-70 0 -125 -50t-55 -132z" />
<glyph unicode="&#xa5;" horiz-adv-x="1239" d="M66 281l32 194h299l23 131h-299l31 195h186l-213 612h407l136 -477l290 477h410l-432 -612h197l-31 -195h-299l-23 -131h299l-32 -194h-299l-48 -281h-383l48 281h-299z" />
<glyph unicode="&#xa6;" horiz-adv-x="1024" d="M332 -410v871h360v-871h-360zM332 604v871h360v-871h-360z" />
<glyph unicode="&#xa7;" horiz-adv-x="1077" d="M18 164l170 198q53 -42 129.5 -79t135.5 -37q84 0 84 47q0 10 -8 19t-26 17.5t-34 14.5t-47 17t-49 18q-49 19 -86 39t-75 51.5t-58.5 76t-20.5 99.5q0 54 16 100t46 81.5t57.5 59t66.5 50.5q-48 33 -73 86.5t-25 114.5q0 114 65.5 197.5t174 124t244.5 40.5 q242 0 395 -143l-144 -215q-160 86 -274 86q-90 0 -90 -56q0 -25 29 -41.5t135 -58.5q141 -56 194.5 -113.5t53.5 -132.5q0 -182 -207 -280q133 -87 133 -215q0 -85 -43 -155t-113 -112.5t-151.5 -65t-163.5 -22.5q-125 0 -247.5 50t-193.5 139zM469 743q0 -33 45 -55 l78 -41q55 44 55 88q0 30 -39 49l-82 45q-31 -24 -44 -43t-13 -43z" />
<glyph unicode="&#xa8;" horiz-adv-x="997" d="M61 1339q0 83 63 140t161 57q84 0 125 -38t41 -103q0 -84 -62 -138.5t-158 -54.5q-83 0 -126.5 36.5t-43.5 100.5zM528 1339q0 84 62 140.5t162 56.5q84 0 125 -38t41 -103q0 -84 -63 -138.5t-157 -54.5q-83 0 -126.5 36.5t-43.5 100.5z" />
<glyph unicode="&#xa9;" horiz-adv-x="1665" d="M113 737q0 161 58 300t158 234.5t235 149.5t286 54q337 0 537 -199.5t200 -530.5q0 -211 -100.5 -383t-269 -267t-367.5 -95q-150 0 -282 48.5t-234 139t-161.5 232.5t-59.5 317zM260 737q0 -183 77 -320.5t210 -208.5t303 -71q159 0 296 79.5t218.5 218t81.5 302.5 q0 267 -163.5 433.5t-432.5 166.5q-163 0 -297.5 -74.5t-213.5 -212.5t-79 -313zM492 735q0 182 99 297t273 115q137 0 225 -78t95 -233h-191q-8 61 -38 93t-93 32q-155 0 -155 -224q0 -102 44 -160.5t121 -58.5q59 0 111 22.5t111 63.5l88 -143q-64 -56 -153 -92.5 t-185 -36.5q-163 0 -257.5 113t-94.5 290z" />
<glyph unicode="&#xaa;" horiz-adv-x="1009" d="M86 834q0 106 26 194.5t70.5 149.5t103 103t123 61.5t132.5 19.5q50 0 108 -20.5t99 -57.5q5 10 14 31.5t16 32.5h279l-144 -813h-292l-7 75q-110 -94 -247 -94q-138 0 -209.5 82t-71.5 236zM451 881q0 -109 73 -109q61 0 99 33l47 262q-43 39 -84 39q-66 0 -100.5 -62 t-34.5 -163z" />
<glyph unicode="&#xab;" horiz-adv-x="1114" d="M27 492l14 92l385 348l176 -207l-213 -188l148 -201l-250 -197zM539 492l14 92l385 348l176 -207l-213 -188l148 -201l-250 -197z" />
<glyph unicode="&#xac;" horiz-adv-x="1228" d="M66 594v250h1099v-604h-266v354h-833z" />
<glyph unicode="&#xad;" horiz-adv-x="638" d="M10 414l53 315h541l-53 -315h-541z" />
<glyph unicode="&#xae;" horiz-adv-x="866" d="M137 1118q0 168 111 275.5t276 107.5q169 0 276 -105t107 -278q0 -162 -113 -272.5t-272 -110.5q-172 0 -278.5 101t-106.5 282zM238 1120q0 -137 77.5 -213t206.5 -76q115 0 198 83.5t83 203.5q0 131 -78.5 210t-202.5 79q-122 0 -203 -81.5t-81 -205.5zM383 940v369 h154q70 0 106.5 -34.5t36.5 -90.5q0 -33 -17 -60.5t-47 -42.5l84 -141h-112l-64 119q-10 -2 -32 -2h-17v-117h-92zM475 1133h31q36 0 52.5 12.5t16.5 42.5q0 47 -65 47h-35v-102z" />
<glyph unicode="&#xaf;" horiz-adv-x="997" d="M162 1212l43 254h590l-43 -254h-590z" />
<glyph unicode="&#xb0;" horiz-adv-x="710" d="M125 1376q0 112 79 187t191 75q109 0 184.5 -74.5t75.5 -187.5q0 -111 -76 -186.5t-184 -75.5q-121 0 -195.5 71.5t-74.5 190.5zM254 1378q0 -67 37 -105t104 -38q58 0 97.5 40t39.5 103q0 65 -38.5 103.5t-98.5 38.5q-67 0 -104 -38t-37 -104z" />
<glyph unicode="&#xb1;" horiz-adv-x="1228" d="M78 492v251h405v369h265v-369h401v-251h-401v-240h399v-252h-1065v252h401v240h-405z" />
<glyph unicode="&#xb2;" horiz-adv-x="757" d="M88 819l33 193l233 151q88 58 111 82q29 31 29 62q0 45 -60 45q-69 0 -201 -76l-81 184q202 156 426 156q116 0 191 -52.5t75 -148.5q0 -85 -46.5 -152t-146.5 -133l-139 -94h266l-37 -217h-653z" />
<glyph unicode="&#xb3;" horiz-adv-x="731" d="M49 911l117 172q97 -63 201 -63q53 0 75.5 13.5t22.5 47.5q0 22 -20 32.5t-70 10.5q-57 0 -92 -6l30 185q164 3 164 67q0 18 -13.5 24.5t-43.5 6.5q-77 0 -189 -51l-45 176q176 90 355 90q125 0 188.5 -44t63.5 -124q0 -158 -193 -215q77 -7 118.5 -48t41.5 -108 q0 -90 -56.5 -153t-144 -91t-197.5 -28q-201 0 -313 106z" />
<glyph unicode="&#xb4;" horiz-adv-x="997" d="M211 1343l412 328l145 -229l-434 -285z" />
<glyph unicode="&#xb5;" horiz-adv-x="1271" d="M102 -410v1500h426v-699q0 -131 113 -131q43 0 102 27v803h426v-1090h-327v94q-68 -108 -191 -108q-69 0 -123 28v-424h-426z" />
<glyph unicode="&#xb6;" horiz-adv-x="1126" d="M119 1004q0 206 146.5 338.5t383.5 132.5h531l-246 -1475h-236l217 1298h-129l-217 -1298h-235l112 668q-161 15 -244 104t-83 232z" />
<glyph unicode="&#xb7;" horiz-adv-x="684" d="M127 662q0 95 61 151.5t162 56.5q100 0 159.5 -56.5t59.5 -151.5q0 -93 -59 -151t-160 -58q-104 0 -163.5 58t-59.5 151z" />
<glyph unicode="&#xb8;" horiz-adv-x="999" d="M-43 -442l51 155q74 -20 131 -20q47 0 67.5 14t20.5 45q0 24 -24.5 31.5t-85.5 7.5h-43l76 219h153l-33 -92q77 -7 123.5 -42.5t46.5 -104.5q0 -110 -76.5 -180t-211.5 -70q-123 0 -195 37z" />
<glyph unicode="&#xb9;" horiz-adv-x="632" d="M174 1257l10 213q183 47 275 132h262l-131 -783h-330l74 438h-160z" />
<glyph unicode="&#xba;" horiz-adv-x="1042" d="M133 858q0 101 29 185t78 142t115 98.5t140.5 59.5t153.5 19q169 0 269 -86t100 -254q0 -123 -42 -220.5t-114 -157.5t-161.5 -91t-190.5 -31q-181 0 -279 84t-98 252zM451 887q0 -125 98 -125q71 0 113.5 56.5t42.5 176.5q0 123 -97 123q-157 0 -157 -231z" />
<glyph unicode="&#xbb;" horiz-adv-x="1087" d="M-25 346l213 189l-147 200l250 197l260 -352l-14 -93l-385 -348zM485 346l213 189l-147 200l250 197l260 -352l-14 -93l-385 -348z" />
<glyph unicode="&#xbc;" horiz-adv-x="1894" d="M178 1155l10 213q184 47 275 131h262l-131 -782h-330l74 438h-160zM207 0l1134 1475h279l-1131 -1475h-282zM918 119l32 205l363 458h375l-78 -458h88l-33 -205h-88l-21 -119h-274l21 119h-385zM1180 324h155l43 254z" />
<glyph unicode="&#xbd;" horiz-adv-x="1894" d="M166 0l1134 1475h279l-1130 -1475h-283zM180 1155l10 213q184 47 275 131h262l-131 -782h-330l74 438h-160zM1004 0l32 193l234 151q87 58 110 81q29 32 29 62q0 45 -59 45q-34 0 -91.5 -22.5t-109.5 -52.5l-82 184q202 156 426 156q116 0 191 -52.5t75 -148.5 q0 -85 -46 -152t-146 -133l-140 -94h267l-37 -217h-653z" />
<glyph unicode="&#xbe;" horiz-adv-x="1894" d="M133 809l117 172q97 -63 201 -63q53 0 75.5 13.5t22.5 47.5q0 22 -20 32.5t-70 10.5q-57 0 -92 -6l30 184q164 3 164 68q0 18 -13.5 24t-43.5 6q-77 0 -189 -51l-45 176q176 90 355 90q125 0 188.5 -43.5t63.5 -123.5t-50.5 -134.5t-142.5 -81.5q77 -7 118.5 -47.5 t41.5 -107.5q0 -90 -56.5 -153.5t-144 -91.5t-197.5 -28q-200 0 -313 107zM293 0l1134 1475h279l-1131 -1475h-282zM961 119l32 205l363 458h375l-78 -458h88l-33 -205h-88l-21 -119h-274l21 119h-385zM1223 324h155l43 254z" />
<glyph unicode="&#xbf;" horiz-adv-x="1159" d="M-53 -76q0 82 20.5 150.5t53.5 116t73.5 88t82.5 74.5t78 66t63 72t34 84l6 35h408l-10 -65q-12 -69 -44.5 -131t-72.5 -104t-84.5 -82.5t-80.5 -70.5t-59.5 -64.5t-23.5 -67.5q0 -37 24.5 -58.5t67.5 -21.5q132 0 156 143h385q-18 -110 -62 -196t-104.5 -142.5 t-140.5 -93.5t-165.5 -52.5t-182.5 -15.5q-88 0 -163 20t-133.5 59.5t-92 105t-33.5 151.5zM391 868q0 105 70 174.5t184 69.5q88 0 137 -48.5t49 -125.5q0 -108 -72.5 -176t-183.5 -68q-87 0 -135.5 47t-48.5 127z" />
<glyph unicode="&#xc0;" horiz-adv-x="1464" d="M-111 0l744 1475h493l244 -1475h-475l-33 231h-409l-113 -231h-451zM580 545h262l-41 497zM674 1720l176 250l348 -250l-141 -188z" />
<glyph unicode="&#xc1;" horiz-adv-x="1464" d="M-111 0l744 1475h493l244 -1475h-475l-33 231h-409l-113 -231h-451zM580 545h262l-41 497zM678 1720l430 250l94 -250l-446 -188z" />
<glyph unicode="&#xc2;" horiz-adv-x="1464" d="M-111 0l744 1475h493l244 -1475h-475l-33 231h-409l-113 -231h-451zM565 1677l266 211h199l195 -213l-176 -133l-158 113l-197 -113zM580 545h262l-41 497z" />
<glyph unicode="&#xc3;" horiz-adv-x="1464" d="M-111 0l744 1475h493l244 -1475h-475l-33 231h-409l-113 -231h-451zM496 1640q46 112 115.5 188.5t148.5 76.5q59 0 139 -30t102 -30q31 0 54 12.5t47 49.5l176 -86q-44 -113 -110.5 -180.5t-151.5 -67.5q-66 0 -149 29.5t-101 29.5q-28 0 -47.5 -14t-46.5 -57zM580 545 h262l-41 497z" />
<glyph unicode="&#xc4;" horiz-adv-x="1464" d="M-111 0l744 1475h493l244 -1475h-475l-33 231h-409l-113 -231h-451zM479 1706q0 83 62.5 140t160.5 57q84 0 125 -38.5t41 -103.5q0 -85 -61 -138.5t-158 -53.5q-83 0 -126.5 36.5t-43.5 100.5zM580 545h262l-41 497zM946 1706q0 84 61.5 140.5t161.5 56.5 q84 0 125 -38.5t41 -103.5q0 -84 -62.5 -138t-156.5 -54q-83 0 -126.5 36.5t-43.5 100.5z" />
<glyph unicode="&#xc5;" horiz-adv-x="1464" d="M-111 0l742 1466q-6 24 -6 60q0 136 93 217.5t226 81.5q101 0 164 -54t63 -151q0 -83 -45 -150l244 -1470h-475l-33 231h-409l-113 -231h-451zM582 549h258l-39 493zM815 1561q0 -68 74 -68q40 0 69 28t29 74q0 32 -19 49t-50 17q-50 0 -76.5 -27t-26.5 -73z" />
<glyph unicode="&#xc6;" horiz-adv-x="2023" d="M-111 0l904 1475h1308l-63 -388h-598l-31 -186h543l-58 -338h-542l-31 -184h602l-63 -379h-1037l54 313h-322l-184 -313h-482zM702 639h228l78 465h-33z" />
<glyph unicode="&#xc7;" horiz-adv-x="1386" d="M59 578q0 193 57.5 361t163.5 293t268 197t361 72q119 0 216 -35.5t166.5 -106.5t99 -188t8.5 -268h-422q11 104 -24.5 155.5t-125.5 51.5q-147 0 -227 -120.5t-80 -352.5q0 -260 219 -260q182 0 406 143l127 -301q-278 -215 -578 -239l-24 -78q174 -14 174 -148 q0 -110 -75 -180t-210 -70q-121 0 -197 37l52 150q74 -21 129 -21q51 0 71.5 13.5t20.5 46.5q0 28 -26.5 38.5t-84.5 10.5h-45l70 198q-240 20 -365 181.5t-125 419.5z" />
<glyph unicode="&#xc8;" horiz-adv-x="1187" d="M-12 0l245 1475h1031l-64 -383h-598l-31 -193h545l-57 -336h-545l-31 -188h604l-63 -375h-1036zM535 1722l176 250l348 -250l-141 -188z" />
<glyph unicode="&#xc9;" horiz-adv-x="1187" d="M-12 0l245 1475h1031l-64 -383h-598l-31 -193h545l-57 -336h-545l-31 -188h604l-63 -375h-1036zM573 1722l431 250l94 -250l-447 -188z" />
<glyph unicode="&#xca;" horiz-adv-x="1187" d="M-12 0l245 1475h1031l-64 -383h-598l-31 -193h545l-57 -336h-545l-31 -188h604l-63 -375h-1036zM479 1679l266 211h199l195 -213l-176 -133l-158 113l-197 -113z" />
<glyph unicode="&#xcb;" horiz-adv-x="1187" d="M-12 0l245 1475h1031l-64 -383h-598l-31 -193h545l-57 -336h-545l-31 -188h604l-63 -375h-1036zM381 1708q0 83 62.5 140t160.5 57q84 0 125 -38.5t41 -103.5q0 -85 -61 -138.5t-158 -53.5q-83 0 -126.5 36.5t-43.5 100.5zM848 1708q0 84 61.5 140.5t161.5 56.5 q84 0 125 -38.5t41 -103.5q0 -84 -62.5 -138t-156.5 -54q-83 0 -126.5 36.5t-43.5 100.5z" />
<glyph unicode="&#xcc;" horiz-adv-x="612" d="M-12 0l245 1475h433l-246 -1475h-432zM244 1720l176 250l348 -250l-141 -188z" />
<glyph unicode="&#xcd;" horiz-adv-x="612" d="M-12 0l245 1475h433l-246 -1475h-432zM244 1720l430 250l94 -250l-446 -188z" />
<glyph unicode="&#xce;" horiz-adv-x="612" d="M-12 0l245 1475h433l-246 -1475h-432zM152 1677l266 211h198l195 -213l-176 -133l-158 113l-196 -113z" />
<glyph unicode="&#xcf;" horiz-adv-x="612" d="M-12 0l245 1475h433l-246 -1475h-432zM78 1706q0 83 62.5 140t160.5 57q84 0 125 -38.5t41 -103.5q0 -85 -61 -138.5t-158 -53.5q-83 0 -126.5 36.5t-43.5 100.5zM545 1706q0 84 61.5 140.5t161.5 56.5q84 0 125 -38.5t41 -103.5q0 -84 -62.5 -138t-156.5 -54 q-83 0 -126.5 36.5t-43.5 100.5z" />
<glyph unicode="&#xd0;" horiz-adv-x="1560" d="M61 596l45 270h152l100 609h574q153 0 270.5 -44.5t190.5 -125.5t110 -189.5t37 -241.5q0 -211 -52.5 -370.5t-162.5 -273.5t-287 -172t-420 -58h-505l100 596h-152zM608 379h133q173 0 256.5 118t83.5 334q0 265 -219 265h-133l-39 -230h189l-45 -270h-189z" />
<glyph unicode="&#xd1;" horiz-adv-x="1452" d="M-12 0l245 1475h371l350 -758l125 758h426l-245 -1475h-371l-354 717l-121 -717h-426zM528 1640q46 111 116 188t149 77q59 0 139 -30t102 -30q31 0 54 12.5t47 49.5l176 -86q-44 -113 -110.5 -180.5t-151.5 -67.5q-66 0 -148.5 29.5t-101.5 29.5q-28 0 -47.5 -14 t-46.5 -57z" />
<glyph unicode="&#xd2;" d="M61 590q0 192 56.5 357.5t161.5 288.5t266 193t360 70q159 0 285 -46t207 -129.5t123.5 -196.5t42.5 -250q0 -153 -36.5 -289.5t-108.5 -248.5t-173.5 -193.5t-238 -126t-295.5 -44.5q-321 0 -485.5 163t-164.5 452zM528 653q0 -276 230 -276q86 0 152 36t106 99t60 142 t20 171q0 125 -55 200t-173 75q-83 0 -148.5 -35.5t-107 -97t-63 -141.5t-21.5 -173zM733 1720l176 250l348 -250l-141 -188z" />
<glyph unicode="&#xd3;" d="M61 590q0 192 56.5 357.5t161.5 288.5t266 193t360 70q159 0 285 -46t207 -129.5t123.5 -196.5t42.5 -250q0 -153 -36.5 -289.5t-108.5 -248.5t-173.5 -193.5t-238 -126t-295.5 -44.5q-321 0 -485.5 163t-164.5 452zM528 653q0 -276 230 -276q86 0 152 36t106 99t60 142 t20 171q0 125 -55 200t-173 75q-83 0 -148.5 -35.5t-107 -97t-63 -141.5t-21.5 -173zM733 1720l430 250l94 -250l-446 -188z" />
<glyph unicode="&#xd4;" d="M61 590q0 192 56.5 357.5t161.5 288.5t266 193t360 70q159 0 285 -46t207 -129.5t123.5 -196.5t42.5 -250q0 -153 -36.5 -289.5t-108.5 -248.5t-173.5 -193.5t-238 -126t-295.5 -44.5q-321 0 -485.5 163t-164.5 452zM528 653q0 -276 230 -276q86 0 152 36t106 99t60 142 t20 171q0 125 -55 200t-173 75q-83 0 -148.5 -35.5t-107 -97t-63 -141.5t-21.5 -173zM641 1677l266 211h199l194 -213l-176 -133l-157 113l-197 -113z" />
<glyph unicode="&#xd5;" d="M61 590q0 192 56.5 357.5t161.5 288.5t266 193t360 70q159 0 285 -46t207 -129.5t123.5 -196.5t42.5 -250q0 -153 -36.5 -289.5t-108.5 -248.5t-173.5 -193.5t-238 -126t-295.5 -44.5q-321 0 -485.5 163t-164.5 452zM528 653q0 -276 230 -276q86 0 152 36t106 99t60 142 t20 171q0 125 -55 200t-173 75q-83 0 -148.5 -35.5t-107 -97t-63 -141.5t-21.5 -173zM571 1640q46 111 116 188t149 77q59 0 139 -30t102 -30q31 0 54 12.5t47 49.5l176 -86q-44 -113 -110.5 -180.5t-151.5 -67.5q-66 0 -148.5 29.5t-101.5 29.5q-28 0 -47.5 -14t-46.5 -57z " />
<glyph unicode="&#xd6;" d="M61 590q0 192 56.5 357.5t161.5 288.5t266 193t360 70q159 0 285 -46t207 -129.5t123.5 -196.5t42.5 -250q0 -153 -36.5 -289.5t-108.5 -248.5t-173.5 -193.5t-238 -126t-295.5 -44.5q-321 0 -485.5 163t-164.5 452zM528 653q0 -276 230 -276q86 0 152 36t106 99t60 142 t20 171q0 125 -55 200t-173 75q-83 0 -148.5 -35.5t-107 -97t-63 -141.5t-21.5 -173zM553 1706q0 83 62.5 140t160.5 57q84 0 125 -38.5t41 -103.5q0 -85 -61 -138.5t-158 -53.5q-83 0 -126.5 36.5t-43.5 100.5zM1020 1706q0 84 61.5 140.5t161.5 56.5q84 0 125 -38.5 t41 -103.5q0 -84 -62.5 -138t-156.5 -54q-83 0 -126.5 36.5t-43.5 100.5z" />
<glyph unicode="&#xd7;" horiz-adv-x="1228" d="M141 332l291 291l-291 288l178 179l291 -287l289 287l188 -189l-288 -289l288 -290l-178 -179l-288 291l-291 -291z" />
<glyph unicode="&#xd8;" d="M57 590q0 153 35.5 290t107 250t172 195.5t237 128t296.5 45.5q71 0 123 -8l64 129h335l-112 -229q122 -81 185 -213.5t63 -300.5q0 -153 -37 -289.5t-109.5 -248.5t-175 -193.5t-239 -126t-295.5 -44.5q-10 0 -30.5 1t-29.5 1l-59 -122h-334l92 194 q-144 72 -216.5 210.5t-72.5 330.5zM528 653q0 -276 230 -276q86 0 152 36t106 99t60 142t20 171q0 125 -55 200t-173 75q-83 0 -148.5 -35.5t-107 -97t-63 -141.5t-21.5 -173z" />
<glyph unicode="&#xd9;" horiz-adv-x="1398" d="M78 604l145 871h434l-149 -900q-18 -106 22.5 -157t126.5 -51q93 0 150 48t76 160l149 900h430l-149 -902q-27 -165 -85 -280.5t-148 -185t-203.5 -101t-262.5 -31.5q-309 0 -448 163.5t-88 465.5zM604 1720l176 250l348 -250l-141 -188z" />
<glyph unicode="&#xda;" horiz-adv-x="1398" d="M78 604l145 871h434l-149 -900q-18 -106 22.5 -157t126.5 -51q93 0 150 48t76 160l149 900h430l-149 -902q-27 -165 -85 -280.5t-148 -185t-203.5 -101t-262.5 -31.5q-309 0 -448 163.5t-88 465.5zM643 1720l430 250l94 -250l-446 -188z" />
<glyph unicode="&#xdb;" horiz-adv-x="1398" d="M78 604l145 871h434l-149 -900q-18 -106 22.5 -157t126.5 -51q93 0 150 48t76 160l149 900h430l-149 -902q-27 -165 -85 -280.5t-148 -185t-203.5 -101t-262.5 -31.5q-309 0 -448 163.5t-88 465.5zM543 1677l266 211h199l194 -213l-176 -133l-158 113l-196 -113z" />
<glyph unicode="&#xdc;" horiz-adv-x="1398" d="M78 604l145 871h434l-149 -900q-18 -106 22.5 -157t126.5 -51q93 0 150 48t76 160l149 900h430l-149 -902q-27 -165 -85 -280.5t-148 -185t-203.5 -101t-262.5 -31.5q-309 0 -448 163.5t-88 465.5zM459 1706q0 83 62.5 140t160.5 57q84 0 125 -38.5t41 -103.5 q0 -85 -61 -138.5t-158 -53.5q-83 0 -126.5 36.5t-43.5 100.5zM926 1706q0 84 61.5 140.5t161.5 56.5q84 0 125 -38.5t41 -103.5q0 -84 -62.5 -138t-156.5 -54q-83 0 -126.5 36.5t-43.5 100.5z" />
<glyph unicode="&#xdd;" horiz-adv-x="1419" d="M135 1475h471l148 -564l333 564h484l-672 -957l-86 -518h-432l86 514zM627 1720l430 250l94 -250l-446 -188z" />
<glyph unicode="&#xde;" horiz-adv-x="1292" d="M-20 0l245 1475h434l-28 -175h174q218 0 342.5 -111.5t124.5 -324.5q0 -287 -173 -452.5t-483 -165.5h-161l-41 -246h-434zM512 590h135q91 0 140 56.5t49 148.5q0 116 -131 116h-140z" />
<glyph unicode="&#xdf;" horiz-adv-x="1351" d="M51 0l131 786h-125l41 242l133 53l5 19q15 90 60 158t105.5 108.5t141 65.5t156 34t161.5 9q202 0 317 -83.5t115 -248.5q0 -141 -77 -243t-197 -142q126 -31 194 -110.5t68 -198.5q0 -109 -41 -200.5t-109.5 -150t-154 -91t-176.5 -32.5q-79 0 -154 25t-127 70l121 276 q43 -24 100 -24q63 0 100.5 36t37.5 99q0 64 -58 94t-174 33l51 313q91 3 142 48.5t51 127.5q0 98 -105 98q-124 0 -149 -159l-170 -1012h-414z" />
<glyph unicode="&#xe0;" horiz-adv-x="1265" d="M31 397q0 144 33.5 264.5t90 202.5t131.5 139t156.5 83t167.5 26q75 0 150 -31t127 -96l47 102h338l-182 -1087h-361l-8 125q-54 -63 -141.5 -106.5t-196.5 -43.5q-172 0 -262 109t-90 313zM479 463q0 -162 111 -162q87 0 143 53l62 369q-40 57 -125 57q-95 0 -143 -86.5 t-48 -230.5zM561 1442l225 229l304 -323l-189 -191z" />
<glyph unicode="&#xe1;" horiz-adv-x="1265" d="M31 397q0 144 33.5 264.5t90 202.5t131.5 139t156.5 83t167.5 26q75 0 150 -31t127 -96l47 102h338l-182 -1087h-361l-8 125q-54 -63 -141.5 -106.5t-196.5 -43.5q-172 0 -262 109t-90 313zM479 463q0 -162 111 -162q87 0 143 53l62 369q-40 57 -125 57q-95 0 -143 -86.5 t-48 -230.5zM573 1343l412 328l145 -229l-434 -285z" />
<glyph unicode="&#xe2;" horiz-adv-x="1265" d="M31 397q0 144 33.5 264.5t90 202.5t131.5 139t156.5 83t167.5 26q75 0 150 -31t127 -96l47 102h338l-182 -1087h-361l-8 125q-54 -63 -141.5 -106.5t-196.5 -43.5q-172 0 -262 109t-90 313zM446 1296l318 301h203l211 -305l-199 -131l-160 158l-215 -158zM479 463 q0 -162 111 -162q87 0 143 53l62 369q-40 57 -125 57q-95 0 -143 -86.5t-48 -230.5z" />
<glyph unicode="&#xe3;" horiz-adv-x="1265" d="M31 397q0 144 33.5 264.5t90 202.5t131.5 139t156.5 83t167.5 26q75 0 150 -31t127 -96l47 102h338l-182 -1087h-361l-8 125q-54 -63 -141.5 -106.5t-196.5 -43.5q-172 0 -262 109t-90 313zM449 1278q46 111 115.5 187.5t148.5 76.5q59 0 139 -29.5t102 -29.5q32 0 55 12 t46 49l176 -86q-42 -112 -109.5 -180t-152.5 -68q-67 0 -148 30t-100 30q-27 0 -47.5 -14.5t-48.5 -57.5zM479 463q0 -162 111 -162q87 0 143 53l62 369q-40 57 -125 57q-95 0 -143 -86.5t-48 -230.5z" />
<glyph unicode="&#xe4;" horiz-adv-x="1265" d="M31 397q0 144 33.5 264.5t90 202.5t131.5 139t156.5 83t167.5 26q75 0 150 -31t127 -96l47 102h338l-182 -1087h-361l-8 125q-54 -63 -141.5 -106.5t-196.5 -43.5q-172 0 -262 109t-90 313zM406 1339q0 83 62.5 140t160.5 57q84 0 125 -38t41 -103q0 -84 -62 -138.5 t-158 -54.5q-83 0 -126 36.5t-43 100.5zM479 463q0 -162 111 -162q87 0 143 53l62 369q-40 57 -125 57q-95 0 -143 -86.5t-48 -230.5zM872 1339q0 84 62 140.5t162 56.5q84 0 125 -38t41 -103q0 -84 -63 -138.5t-157 -54.5q-83 0 -126.5 36.5t-43.5 100.5z" />
<glyph unicode="&#xe5;" horiz-adv-x="1265" d="M31 397q0 144 33.5 264.5t90 202.5t131.5 139t156.5 83t167.5 26q75 0 150 -31t127 -96l47 102h338l-182 -1087h-361l-8 125q-54 -63 -141.5 -106.5t-196.5 -43.5q-172 0 -262 109t-90 313zM479 463q0 -162 111 -162q87 0 143 53l62 369q-40 57 -125 57q-95 0 -143 -86.5 t-48 -230.5zM614 1352q0 118 79.5 188t197.5 70q88 0 142 -46.5t54 -131.5q0 -113 -79 -182.5t-191 -69.5q-95 0 -149 44.5t-54 127.5zM778 1380q0 -57 64 -57q35 0 59.5 24.5t24.5 63.5q0 27 -16.5 42t-43.5 15q-42 0 -65 -24.5t-23 -63.5z" />
<glyph unicode="&#xe6;" horiz-adv-x="1867" d="M31 397q0 144 33.5 264.5t90 202.5t131.5 139t156.5 83t167.5 26q75 0 150 -31t127 -96l47 102h311l-12 -53q99 78 266 78q164 0 266.5 -87t102.5 -237q0 -55 -13.5 -101.5t-34 -81.5t-56.5 -64t-71 -49.5t-87 -36.5t-93.5 -26t-103.5 -18.5t-104.5 -12.5t-106.5 -9 q3 -41 46 -74.5t112 -33.5q107 0 321 65l35 -254q-236 -117 -481 -117q-150 0 -255.5 53.5t-160.5 153.5q-75 -94 -188 -150.5t-244 -56.5q-172 0 -262 109t-90 313zM479 463q0 -162 111 -162q87 0 143 53l62 369q-40 57 -125 57q-95 0 -143 -86.5t-48 -230.5zM1200 614 q156 13 215.5 45.5t59.5 85.5q0 39 -22.5 61.5t-66.5 22.5q-68 0 -120.5 -59.5t-65.5 -155.5z" />
<glyph unicode="&#xe7;" horiz-adv-x="1126" d="M25 453q0 299 175.5 479t483.5 180q236 0 344.5 -119t75.5 -350h-346q18 152 -94 152q-88 0 -140.5 -83t-52.5 -229q0 -89 39 -136.5t111 -47.5q120 0 317 90l59 -260q-202 -126 -419 -149l-21 -62q77 -7 123.5 -42.5t46.5 -104.5q0 -109 -77 -179.5t-212 -70.5 q-122 0 -194 37l51 155q74 -20 131 -20q47 0 67.5 14t20.5 45q0 24 -25 31.5t-86 7.5h-43l66 189q-181 20 -291 141t-110 332z" />
<glyph unicode="&#xe8;" horiz-adv-x="1132" d="M27 428q0 304 181 494t474 190q207 0 324.5 -93t117.5 -249q0 -87 -33 -151t-108.5 -112.5t-203.5 -77.5t-314 -40q3 -41 46 -74.5t112 -33.5q107 0 321 65l35 -254q-236 -117 -481 -117q-227 0 -349 121t-122 332zM451 1442l225 229l303 -323l-188 -191zM465 612 q105 9 167 28.5t83.5 44t21.5 58.5q0 39 -23.5 61.5t-68.5 22.5q-67 0 -119.5 -63.5t-60.5 -151.5z" />
<glyph unicode="&#xe9;" horiz-adv-x="1132" d="M27 428q0 304 181 494t474 190q207 0 324.5 -93t117.5 -249q0 -87 -33 -151t-108.5 -112.5t-203.5 -77.5t-314 -40q3 -41 46 -74.5t112 -33.5q107 0 321 65l35 -254q-236 -117 -481 -117q-227 0 -349 121t-122 332zM465 612q105 9 167 28.5t83.5 44t21.5 58.5 q0 39 -23.5 61.5t-68.5 22.5q-67 0 -119.5 -63.5t-60.5 -151.5zM487 1343l412 328l145 -229l-434 -285z" />
<glyph unicode="&#xea;" horiz-adv-x="1132" d="M27 428q0 304 181 494t474 190q207 0 324.5 -93t117.5 -249q0 -87 -33 -151t-108.5 -112.5t-203.5 -77.5t-314 -40q3 -41 46 -74.5t112 -33.5q107 0 321 65l35 -254q-236 -117 -481 -117q-227 0 -349 121t-122 332zM356 1296l318 301h203l210 -305l-198 -131l-160 158 l-215 -158zM465 612q105 9 167 28.5t83.5 44t21.5 58.5q0 39 -23.5 61.5t-68.5 22.5q-67 0 -119.5 -63.5t-60.5 -151.5z" />
<glyph unicode="&#xeb;" horiz-adv-x="1132" d="M27 428q0 304 181 494t474 190q207 0 324.5 -93t117.5 -249q0 -87 -33 -151t-108.5 -112.5t-203.5 -77.5t-314 -40q3 -41 46 -74.5t112 -33.5q107 0 321 65l35 -254q-236 -117 -481 -117q-227 0 -349 121t-122 332zM315 1339q0 83 63 140t161 57q84 0 125 -38t41 -103 q0 -84 -62 -138.5t-158 -54.5q-83 0 -126.5 36.5t-43.5 100.5zM465 612q105 9 167 28.5t83.5 44t21.5 58.5q0 39 -23.5 61.5t-68.5 22.5q-67 0 -119.5 -63.5t-60.5 -151.5zM782 1339q0 84 62 140.5t162 56.5q84 0 124.5 -38t40.5 -103q0 -84 -62.5 -138.5t-156.5 -54.5 q-83 0 -126.5 36.5t-43.5 100.5z" />
<glyph unicode="&#xec;" horiz-adv-x="595" d="M-2 0l182 1087h416l-182 -1087h-416zM156 1442l225 229l303 -323l-188 -191z" />
<glyph unicode="&#xed;" horiz-adv-x="595" d="M-2 0l182 1087h416l-182 -1087h-416zM145 1343l412 328l145 -229l-434 -285z" />
<glyph unicode="&#xee;" horiz-adv-x="595" d="M-2 0l182 1087h416l-182 -1087h-416zM43 1296l317 301h203l211 -305l-199 -131l-159 158l-215 -158z" />
<glyph unicode="&#xef;" horiz-adv-x="595" d="M-2 0l182 1087h416l-182 -1087h-416zM8 1339q0 83 62.5 140t160.5 57q84 0 125 -38t41 -103q0 -85 -62 -139t-157 -54q-83 0 -126.5 36.5t-43.5 100.5zM475 1339q0 84 61.5 140.5t161.5 56.5q84 0 125 -38t41 -103q0 -84 -62.5 -138.5t-156.5 -54.5q-83 0 -126.5 36.5 t-43.5 100.5z" />
<glyph unicode="&#xf0;" horiz-adv-x="1148" d="M10 383q0 122 38.5 225t104.5 173t155 109.5t188 39.5q166 0 262 -111q-3 84 -39 148.5t-100.5 106.5t-142.5 68t-177 42l143 301q221 -15 369 -92l188 141l162 -231l-141 -103q100 -149 100 -399q0 -184 -41.5 -334t-123.5 -260.5t-211 -171t-295 -60.5 q-91 0 -167.5 22.5t-138.5 69.5t-97.5 127.5t-35.5 188.5zM393 446q0 -65 31 -100t88 -35q86 0 133 65.5t62 194.5q-22 31 -61 53.5t-81 22.5q-78 0 -125 -52.5t-47 -148.5z" />
<glyph unicode="&#xf1;" horiz-adv-x="1191" d="M-20 0l182 1087h340l18 -112q62 57 154 97t190 40q167 0 237.5 -92.5t41.5 -271.5l-125 -748h-416l107 641q13 77 -2 106t-64 29q-34 0 -69 -18t-58 -41l-121 -717h-415zM352 1278q46 111 115.5 187.5t148.5 76.5q59 0 139.5 -29.5t102.5 -29.5q31 0 54 12t46 49l177 -86 q-42 -112 -110 -180t-153 -68q-66 0 -147 30t-100 30q-27 0 -48 -14.5t-49 -57.5z" />
<glyph unicode="&#xf2;" horiz-adv-x="1257" d="M20 440q0 54 9 113q17 120 63 216.5t110.5 159.5t148 105t171 60t183.5 18q242 0 378 -119.5t136 -347.5q0 -39 -7 -100q-15 -123 -60 -221t-109.5 -162.5t-149 -107t-175.5 -61t-192 -18.5q-233 0 -369.5 118t-136.5 347zM467 455q0 -154 115 -154q68 0 116.5 59.5 t67.5 184.5q8 47 8 92q0 154 -112 154q-72 0 -121.5 -60.5t-67.5 -185.5q-6 -53 -6 -90zM487 1442l226 229l303 -323l-189 -191z" />
<glyph unicode="&#xf3;" horiz-adv-x="1257" d="M20 440q0 54 9 113q17 120 63 216.5t110.5 159.5t148 105t171 60t183.5 18q242 0 378 -119.5t136 -347.5q0 -39 -7 -100q-15 -123 -60 -221t-109.5 -162.5t-149 -107t-175.5 -61t-192 -18.5q-233 0 -369.5 118t-136.5 347zM467 455q0 -154 115 -154q68 0 116.5 59.5 t67.5 184.5q8 47 8 92q0 154 -112 154q-72 0 -121.5 -60.5t-67.5 -185.5q-6 -53 -6 -90zM510 1343l412 328l145 -229l-434 -285z" />
<glyph unicode="&#xf4;" horiz-adv-x="1257" d="M20 440q0 54 9 113q17 120 63 216.5t110.5 159.5t148 105t171 60t183.5 18q242 0 378 -119.5t136 -347.5q0 -39 -7 -100q-15 -123 -60 -221t-109.5 -162.5t-149 -107t-175.5 -61t-192 -18.5q-233 0 -369.5 118t-136.5 347zM369 1296l317 301h203l211 -305l-199 -131 l-160 158l-215 -158zM467 455q0 -154 115 -154q68 0 116.5 59.5t67.5 184.5q8 47 8 92q0 154 -112 154q-72 0 -121.5 -60.5t-67.5 -185.5q-6 -53 -6 -90z" />
<glyph unicode="&#xf5;" horiz-adv-x="1257" d="M20 440q0 54 9 113q17 120 63 216.5t110.5 159.5t148 105t171 60t183.5 18q242 0 378 -119.5t136 -347.5q0 -39 -7 -100q-15 -123 -60 -221t-109.5 -162.5t-149 -107t-175.5 -61t-192 -18.5q-233 0 -369.5 118t-136.5 347zM373 1278q46 111 115.5 187.5t148.5 76.5 q59 0 139.5 -29.5t102.5 -29.5q31 0 54 12t46 49l176 -86q-42 -112 -109.5 -180t-152.5 -68q-51 0 -101.5 15t-88.5 30t-58 15q-27 0 -47.5 -14.5t-48.5 -57.5zM467 455q0 -154 115 -154q68 0 116.5 59.5t67.5 184.5q8 47 8 92q0 154 -112 154q-72 0 -121.5 -60.5 t-67.5 -185.5q-6 -53 -6 -90z" />
<glyph unicode="&#xf6;" horiz-adv-x="1257" d="M20 440q0 54 9 113q17 120 63 216.5t110.5 159.5t148 105t171 60t183.5 18q242 0 378 -119.5t136 -347.5q0 -39 -7 -100q-15 -123 -60 -221t-109.5 -162.5t-149 -107t-175.5 -61t-192 -18.5q-233 0 -369.5 118t-136.5 347zM328 1339q0 83 62.5 140t160.5 57q84 0 125 -38 t41 -103q0 -85 -62 -139t-157 -54q-83 0 -126.5 36.5t-43.5 100.5zM467 455q0 -154 115 -154q68 0 116.5 59.5t67.5 184.5q8 47 8 92q0 154 -112 154q-72 0 -121.5 -60.5t-67.5 -185.5q-6 -53 -6 -90zM795 1339q0 84 61.5 140.5t161.5 56.5q84 0 125 -38t41 -103 q0 -84 -62.5 -138.5t-156.5 -54.5q-83 0 -126.5 36.5t-43.5 100.5z" />
<glyph unicode="&#xf7;" horiz-adv-x="1228" d="M82 492v251h1065v-251h-1065zM461 258q0 63 44.5 108.5t106.5 45.5t106 -46.5t44 -107.5q0 -60 -43 -104.5t-109 -44.5q-62 0 -105.5 43.5t-43.5 105.5zM463 981q0 63 44.5 107.5t106.5 44.5t105 -44t43 -108q0 -61 -42 -104t-106 -43q-63 0 -107 43t-44 104z" />
<glyph unicode="&#xf8;" horiz-adv-x="1257" d="M20 440q0 54 9 113q17 120 63 216.5t110.5 159.5t148 105t171 60t183.5 18q9 0 26.5 -1t26.5 -1l57 111h313l-96 -191q187 -119 187 -385q0 -39 -7 -100q-15 -123 -60 -221t-109.5 -162.5t-149 -107t-175.5 -61t-192 -18.5l-69 -129h-312l97 189q-106 54 -164 156 t-58 249zM467 455q0 -154 115 -154q68 0 116.5 59.5t67.5 184.5q8 47 8 92q0 154 -112 154q-72 0 -121.5 -60.5t-67.5 -185.5q-6 -53 -6 -90z" />
<glyph unicode="&#xf9;" horiz-adv-x="1202" d="M37 336l127 751h418l-113 -667q-9 -60 7.5 -88.5t62.5 -28.5q35 0 72 16.5t57 38.5l123 729h413l-182 -1087h-330l-30 123q-132 -148 -334 -148q-170 0 -244.5 95t-46.5 266zM473 1442l225 229l303 -323l-188 -191z" />
<glyph unicode="&#xfa;" horiz-adv-x="1202" d="M37 336l127 751h418l-113 -667q-9 -60 7.5 -88.5t62.5 -28.5q35 0 72 16.5t57 38.5l123 729h413l-182 -1087h-330l-30 123q-132 -148 -334 -148q-170 0 -244.5 95t-46.5 266zM500 1343l411 328l146 -229l-434 -285z" />
<glyph unicode="&#xfb;" horiz-adv-x="1202" d="M37 336l127 751h418l-113 -667q-9 -60 7.5 -88.5t62.5 -28.5q35 0 72 16.5t57 38.5l123 729h413l-182 -1087h-330l-30 123q-132 -148 -334 -148q-170 0 -244.5 95t-46.5 266zM358 1296l318 301h203l211 -305l-199 -131l-160 158l-215 -158z" />
<glyph unicode="&#xfc;" horiz-adv-x="1202" d="M37 336l127 751h418l-113 -667q-9 -60 7.5 -88.5t62.5 -28.5q35 0 72 16.5t57 38.5l123 729h413l-182 -1087h-330l-30 123q-132 -148 -334 -148q-170 0 -244.5 95t-46.5 266zM317 1339q0 83 63 140t161 57q84 0 125 -38t41 -103q0 -84 -62 -138.5t-158 -54.5 q-83 0 -126.5 36.5t-43.5 100.5zM784 1339q0 84 62 140.5t162 56.5q84 0 125 -38t41 -103q0 -84 -63 -138.5t-157 -54.5q-83 0 -126.5 36.5t-43.5 100.5z" />
<glyph unicode="&#xfd;" horiz-adv-x="1112" d="M-123 -401l90 303q91 -11 144 -11q95 0 137 93l12 26l-184 1077h422l30 -671h9l251 671h420l-544 -1083q-82 -162 -157 -253t-171 -135t-230 -44q-114 0 -229 27zM473 1343l412 328l145 -229l-434 -285z" />
<glyph unicode="&#xfe;" horiz-adv-x="1259" d="M-88 -410l313 1885h406l-82 -496q69 59 159.5 96t186.5 37q141 0 232.5 -104t91.5 -316q0 -215 -63 -375t-190 -251t-304 -91q-149 0 -254 95l-80 -480h-416zM453 348q47 -55 118 -55q95 0 147 88t52 244q0 166 -106 166q-77 0 -148 -68z" />
<glyph unicode="&#xff;" horiz-adv-x="1112" d="M-123 -401l90 303q91 -11 144 -11q95 0 137 93l12 26l-184 1077h422l30 -671h9l251 671h420l-544 -1083q-82 -162 -157 -253t-171 -135t-230 -44q-114 0 -229 27zM272 1339q0 83 63 140t161 57q84 0 125 -38t41 -103q0 -84 -62 -138.5t-158 -54.5q-83 0 -126.5 36.5 t-43.5 100.5zM739 1339q0 84 62 140.5t162 56.5q84 0 124.5 -38t40.5 -103q0 -84 -62.5 -138.5t-156.5 -54.5q-83 0 -126.5 36.5t-43.5 100.5z" />
<glyph unicode="&#x152;" horiz-adv-x="2166" d="M59 584q0 157 40.5 299.5t115 254t174.5 193.5t223 126t256 44q129 0 224 -40.5t139 -108.5l20 123h994l-64 -385h-600l-31 -189h543l-57 -336h-543l-31 -186h604l-63 -379h-1002l21 127q-140 -152 -432 -152q-249 0 -390 164.5t-141 444.5zM522 655q0 -126 57 -202 t173 -76q161 0 255.5 125t94.5 321q0 129 -57.5 203t-172.5 74q-84 0 -152.5 -38.5t-110.5 -102t-64.5 -142t-22.5 -162.5z" />
<glyph unicode="&#x153;" horiz-adv-x="1859" d="M20 436q0 136 36 249t98 191t146.5 132t179.5 79t198 25q117 0 212.5 -46.5t147.5 -119.5q49 68 163.5 117t221.5 49q200 0 318.5 -93t118.5 -245q0 -68 -22 -123t-56 -92.5t-90 -66.5t-108 -46t-127.5 -29t-130.5 -17.5t-134 -10.5q3 -41 46 -74.5t112 -33.5 q107 0 321 65l35 -254q-236 -117 -481 -117q-102 0 -189.5 51t-130.5 126q-68 -80 -181.5 -128.5t-225.5 -48.5q-221 0 -349.5 117t-128.5 344zM463 465q0 -86 25.5 -125t82.5 -39q88 0 140.5 84t52.5 240q0 84 -30.5 125t-84.5 41q-84 0 -135 -87.5t-51 -238.5zM1194 612 q155 14 214.5 45t59.5 82q0 40 -22 65t-66 25q-69 0 -122.5 -60t-63.5 -157z" />
<glyph unicode="&#x178;" horiz-adv-x="1419" d="M135 1475h471l148 -564l333 564h484l-672 -957l-86 -518h-432l86 514zM475 1706q0 83 62.5 140t160.5 57q84 0 125 -38.5t41 -103.5q0 -85 -61 -138.5t-158 -53.5q-83 0 -126.5 36.5t-43.5 100.5zM942 1706q0 84 61.5 140.5t161.5 56.5q84 0 125 -38.5t41 -103.5 q0 -84 -62.5 -138t-156.5 -54q-83 0 -126.5 36.5t-43.5 100.5z" />
<glyph unicode="&#x2c6;" horiz-adv-x="997" d="M104 1296l318 301h203l211 -305l-199 -131l-160 158l-215 -158z" />
<glyph unicode="&#x2dc;" horiz-adv-x="999" d="M102 1278q46 111 116 187.5t149 76.5q59 0 139 -29.5t102 -29.5q32 0 55 12t46 49l176 -86q-42 -112 -109.5 -180t-152.5 -68q-67 0 -148 30t-100 30q-27 0 -47.5 -14.5t-48.5 -57.5z" />
<glyph unicode="&#x2000;" horiz-adv-x="986" />
<glyph unicode="&#x2001;" horiz-adv-x="1972" />
<glyph unicode="&#x2002;" horiz-adv-x="986" />
<glyph unicode="&#x2003;" horiz-adv-x="1972" />
<glyph unicode="&#x2004;" horiz-adv-x="657" />
<glyph unicode="&#x2005;" horiz-adv-x="493" />
<glyph unicode="&#x2006;" horiz-adv-x="328" />
<glyph unicode="&#x2007;" horiz-adv-x="328" />
<glyph unicode="&#x2008;" horiz-adv-x="246" />
<glyph unicode="&#x2009;" horiz-adv-x="394" />
<glyph unicode="&#x200a;" horiz-adv-x="109" />
<glyph unicode="&#x2010;" horiz-adv-x="638" d="M16 414l54 315h540l-53 -315h-541z" />
<glyph unicode="&#x2011;" horiz-adv-x="638" d="M16 414l54 315h540l-53 -315h-541z" />
<glyph unicode="&#x2012;" horiz-adv-x="638" d="M16 414l54 315h540l-53 -315h-541z" />
<glyph unicode="&#x2013;" horiz-adv-x="1024" d="M-23 430l43 250h1000l-43 -250h-1000z" />
<glyph unicode="&#x2014;" horiz-adv-x="2048" d="M-8 428l41 248h1997l-41 -248h-1997z" />
<glyph unicode="&#x2018;" horiz-adv-x="475" d="M141 1155q0 149 101.5 255.5t283.5 152.5l27 -136q-78 -26 -116.5 -57t-57.5 -82q64 9 104.5 -25t40.5 -94q0 -83 -62 -140.5t-151 -57.5q-83 0 -126.5 51t-43.5 133z" />
<glyph unicode="&#x2019;" horiz-adv-x="481" d="M131 1028q78 26 116.5 57t57.5 82q-64 -9 -104.5 25t-40.5 94q0 83 62 141t151 58q83 0 126.5 -51.5t43.5 -133.5q0 -149 -101.5 -255t-283.5 -152z" />
<glyph unicode="&#x201a;" horiz-adv-x="464" d="M-74 -176q78 26 116.5 57t57.5 82q-64 -9 -104.5 25t-40.5 94q0 83 62 141t151 58q83 0 126.5 -51.5t43.5 -133.5q0 -149 -101.5 -255t-283.5 -152z" />
<glyph unicode="&#x201c;" horiz-adv-x="915" d="M141 1155q0 149 101.5 255.5t283.5 152.5l27 -136q-78 -26 -116.5 -57t-57.5 -82q64 9 104.5 -25t40.5 -94q0 -83 -62 -140.5t-151 -57.5q-83 0 -126.5 51t-43.5 133zM582 1155q0 149 101.5 255.5t283.5 152.5l26 -136q-78 -26 -116.5 -57t-57.5 -82q64 9 105 -25t41 -94 q0 -83 -62 -140.5t-151 -57.5q-83 0 -126.5 51t-43.5 133z" />
<glyph unicode="&#x201d;" horiz-adv-x="919" d="M131 1028q78 26 116.5 57t57.5 82q-64 -9 -104.5 25t-40.5 94q0 83 62 141t151 58q83 0 126.5 -51.5t43.5 -133.5q0 -149 -101.5 -255t-283.5 -152zM569 1028q78 26 116.5 57t57.5 82q-64 -9 -104.5 25t-40.5 94q0 83 62 141t151 58q83 0 126.5 -51.5t43.5 -133.5 q0 -149 -101.5 -255t-283.5 -152z" />
<glyph unicode="&#x201e;" horiz-adv-x="899" d="M-74 -176q78 26 116.5 57t57.5 82q-64 -9 -104.5 25t-40.5 94q0 83 62 141t151 58q83 0 126.5 -51.5t43.5 -133.5q0 -149 -101.5 -255t-283.5 -152zM360 -176q78 26 117 57.5t58 81.5q-64 -9 -105 25t-41 94q0 83 62 141t151 58q83 0 126.5 -51.5t43.5 -133.5 q0 -149 -101.5 -255t-283.5 -152z" />
<glyph unicode="&#x2022;" horiz-adv-x="1024" d="M197 639q0 136 87.5 225.5t229.5 89.5q145 0 231 -89.5t86 -225.5q0 -134 -88 -227t-231 -93q-147 0 -231 94t-84 226z" />
<glyph unicode="&#x2026;" horiz-adv-x="1689" d="M-23 184q0 95 61.5 152t162.5 57q100 0 159.5 -57t59.5 -152q0 -93 -59 -151t-160 -58q-104 0 -164 58t-60 151zM555 184q0 95 61 152t162 57q100 0 159.5 -57t59.5 -152q0 -93 -59 -151t-160 -58q-104 0 -163.5 58t-59.5 151zM1143 184q0 95 61 152t162 57 q100 0 159.5 -57t59.5 -152q0 -93 -59 -151t-160 -58q-104 0 -163.5 58t-59.5 151z" />
<glyph unicode="&#x202f;" horiz-adv-x="394" />
<glyph unicode="&#x2039;" horiz-adv-x="602" d="M27 492l14 92l385 348l176 -207l-213 -188l148 -201l-250 -197z" />
<glyph unicode="&#x203a;" horiz-adv-x="577" d="M-25 346l213 189l-147 200l250 197l260 -352l-14 -93l-385 -348z" />
<glyph unicode="&#x205f;" horiz-adv-x="493" />
<glyph unicode="&#x20ac;" horiz-adv-x="1277" d="M-27 471l47 182h136l6 35q6 37 14 66h-131l45 182h127q72 245 252 372.5t428 127.5q136 0 254 -54.5t207 -148.5l-199 -236q-128 115 -276 115q-93 0 -157 -41.5t-108 -134.5h451l-43 -182h-465l-18 -101h458l-45 -182h-421q11 -79 63 -116.5t154 -37.5q138 0 342 121 l98 -250q-154 -115 -286.5 -164t-274.5 -49q-92 0 -171.5 27t-136 74t-97 110t-61 135t-22.5 150h-170z" />
<glyph unicode="&#x2122;" horiz-adv-x="1355" d="M164 1321v154h510v-154h-170v-406h-172v406h-168zM711 915l61 560h186l101 -338l100 338h180l60 -560h-160l-27 310l-94 -310h-123l-94 308l-27 -308h-163z" />
<glyph unicode="&#x25fc;" horiz-adv-x="1085" d="M0 0v1085h1085v-1085h-1085z" />
</font>
</defs>
</svg>
